<!-- Frame.io mark sourced from the official Frame.io favicon for integration identification. -->
<svg width="32" height="32" viewBox="0 0 32 32" fill="none" xmlns="http://www.w3.org/2000/svg">
  <path d="M6.451 16c0 4.388-.809 8.605-2.328 12.454A1.9 1.9 0 0 0 4 29.092c0 .907.711 1.765 1.715 1.765.638 0 1.25-.392 1.495-1.005A38.2 38.2 0 0 0 9.808 16 38.2 38.2 0 0 0 7.21 2.148a1.6 1.6 0 0 0-1.495-1.005C4.71 1.143 4 2 4 2.908c0 .22.049.441.123.638C5.642 7.394 6.45 11.612 6.45 16Z" fill="#5B53FF"/>
  <path d="M13.165 16c0 3.211-.367 6.35-1.054 9.34-.024.123-.049.27-.049.392 0 .932.736 1.766 1.716 1.766.735 0 1.397-.515 1.568-1.25A43.8 43.8 0 0 0 16.547 16c0-3.53-.417-6.963-1.2-10.248-.172-.736-.834-1.25-1.57-1.25-.98 0-1.715.808-1.715 1.74 0 .122.025.27.05.392A42.3 42.3 0 0 1 13.164 16Z" fill="#5B53FF"/>
  <path fill-rule="evenodd" clip-rule="evenodd" d="M19.904 16c0-1.545-.073-3.04-.22-4.536-.098-1.03.686-1.912 1.69-1.912.858 0 1.57.637 1.643 1.47.171 1.643.245 3.286.245 4.978s-.074 3.334-.245 4.976c-.073.834-.784 1.471-1.642 1.471-1.005 0-1.789-.907-1.691-1.913.147-1.495.22-3.015.22-4.534Z" fill="#5B53FF"/>
  <path d="M29.51 17.177c.319-.32.49-.76.49-1.177 0-.441-.171-.882-.49-1.201l-.98-.957a1.1 1.1 0 0 0-.784-.318c-.564 0-1.127.441-1.127 1.127v2.697c0 .686.563 1.128 1.127 1.128.27 0 .563-.099.784-.32l.98-.98Z" fill="#5B53FF"/>
</svg>
